<svg xmlns="http://www.w3.org/2000/svg" id="Camada_2" data-name="Camada 2" viewBox="0 0 55.84 33.39">
  <defs>
    <style>
      .cls-1 {
        fill: #a3a3a3;
        stroke-width: 0px;
      }
    </style>
  </defs>
  <g id="Camada_3" data-name="Camada 3">
    <g>
      <path class="cls-1" d="m15.74,12.13c0,.69.07,1.24.2,1.65.15.41.33.85.59,1.34.09.15.13.3.13.43,0,.19-.11.37-.35.56l-1.17.78c-.17.11-.33.17-.48.17-.19,0-.37-.09-.56-.26-.26-.28-.48-.58-.67-.87-.19-.32-.37-.67-.58-1.1-1.45,1.71-3.27,2.56-5.46,2.56-1.56,0-2.8-.45-3.71-1.34-.91-.89-1.37-2.08-1.37-3.57,0-1.58.56-2.86,1.69-3.83s2.64-1.45,4.55-1.45c.63,0,1.28.06,1.97.15s1.39.24,2.14.41v-1.36c0-1.41-.3-2.4-.87-2.97-.59-.58-1.6-.85-3.03-.85-.65,0-1.32.07-2.01.24s-1.36.37-2.01.63c-.3.13-.52.2-.65.24-.13.04-.22.06-.3.06-.26,0-.39-.19-.39-.58v-.91c0-.3.04-.52.13-.65s.26-.26.52-.39c.65-.33,1.43-.61,2.34-.84.91-.24,1.88-.35,2.9-.35,2.21,0,3.83.5,4.87,1.5,1.02,1,1.54,2.53,1.54,4.57v6.02h.04Zm-7.54,2.82c.61,0,1.24-.11,1.91-.33.67-.22,1.26-.63,1.76-1.19.3-.35.52-.74.63-1.19s.19-.98.19-1.62v-.78c-.54-.13-1.11-.24-1.71-.32s-1.17-.11-1.75-.11c-1.24,0-2.15.24-2.77.74-.61.5-.91,1.21-.91,2.14,0,.87.22,1.52.69,1.97.45.46,1.1.69,1.95.69h0Zm14.91,2.01c-.33,0-.56-.06-.71-.19-.15-.11-.28-.37-.39-.72L17.65,1.69c-.11-.37-.17-.61-.17-.74,0-.3.15-.46.45-.46h1.82c.35,0,.59.06.72.19.15.11.26.37.37.72l3.12,12.3,2.9-12.3c.09-.37.2-.61.35-.72.15-.11.41-.19.74-.19h1.49c.35,0,.59.06.74.19.15.11.28.37.35.72l2.93,12.44,3.21-12.44c.11-.37.24-.61.37-.72.15-.11.39-.19.72-.19h1.73c.3,0,.46.15.46.46,0,.09-.02.19-.04.3-.02.11-.06.26-.13.46l-4.48,14.36c-.11.37-.24.61-.39.72s-.39.19-.71.19h-1.6c-.35,0-.59-.06-.74-.19s-.28-.37-.35-.74l-2.88-11.98-2.86,11.96c-.09.37-.2.61-.35.74-.15.13-.41.19-.74.19h-1.6Zm23.87.5c-.97,0-1.93-.11-2.86-.33-.93-.22-1.65-.46-2.14-.74-.3-.17-.5-.35-.58-.52-.07-.17-.11-.35-.11-.52v-.95c0-.39.15-.58.43-.58.11,0,.22.02.33.06.11.04.28.11.46.19.63.28,1.32.5,2.04.65.74.15,1.47.22,2.21.22,1.17,0,2.08-.2,2.71-.61.63-.41.97-1,.97-1.76,0-.52-.17-.95-.5-1.3-.33-.35-.97-.67-1.88-.97l-2.69-.84c-1.36-.43-2.36-1.06-2.97-1.89-.61-.82-.93-1.73-.93-2.69,0-.78.17-1.47.5-2.06s.78-1.11,1.34-1.52c.56-.43,1.19-.74,1.93-.97s1.52-.32,2.34-.32c.41,0,.84.02,1.24.07.43.06.82.13,1.21.2.37.09.72.19,1.06.3.33.11.59.22.78.33.26.15.45.3.56.46.11.15.17.35.17.61v.87c0,.39-.15.59-.43.59-.15,0-.39-.07-.71-.22-1.06-.48-2.25-.72-3.57-.72-1.06,0-1.89.17-2.47.52s-.87.89-.87,1.65c0,.52.19.97.56,1.32s1.06.71,2.04,1.02l2.64.84c1.34.43,2.3,1.02,2.88,1.78.58.76.85,1.63.85,2.6,0,.8-.17,1.52-.48,2.15-.33.63-.78,1.19-1.36,1.63-.58.46-1.26.8-2.06,1.04-.84.26-1.71.39-2.66.39h0Z"/>
      <path class="cls-1" d="m50.49,26.49c-6.11,4.51-14.99,6.91-22.62,6.91-10.7,0-20.34-3.96-27.62-10.53-.58-.52-.06-1.23.63-.82,7.87,4.57,17.59,7.34,27.64,7.34,6.78,0,14.23-1.41,21.08-4.31,1.02-.46,1.89.67.89,1.41h0Z"/>
      <path class="cls-1" d="m53.03,23.59c-.78-1-5.16-.48-7.15-.24-.59.07-.69-.45-.15-.84,3.49-2.45,9.23-1.75,9.9-.93.67.84-.19,6.57-3.45,9.32-.5.43-.98.2-.76-.35.74-1.84,2.4-5.98,1.62-6.96Z"/>
    </g>
  </g>
</svg>