<svg xmlns="http://www.w3.org/2000/svg" id="Camada_2" data-name="Camada 2" viewBox="0 0 71.41 38.38">
  <defs>
    <style>
      .cls-1 {
        fill: #a3a3a3;
        fill-rule: evenodd;
        stroke-width: 0px;
      }
    </style>
  </defs>
  <g id="Camada_3" data-name="Camada 3">
    <g>
      <path class="cls-1" d="m71.41,0h-5.45l-.18.84c-.42,1.95-.8,4.02-1.25,5.93l-1.1-.18c-1.84-.23-3.59.24-5.08,1.21l-.75.53c-.47.35-.97.8-1.38,1.21-.12.12-.17.21-.3.34-.46.45-1.07,1.29-1.42,1.81-.66.99-1.3,2.18-1.71,3.43-.39,1.19-.82,2.95-.44,4.43.33,1.29,1.18,2.34,2.44,2.71,1.26.38,3.41-.13,4.31-.57,1-.48,2.27-1.33,2.81-2.34h.26c0,.31-.62,2.4-.64,2.67h5.41l2.8-13.74c.18-.93.36-1.82.56-2.75l1.12-5.53Z"/>
      <path class="cls-1" d="m41.87,22.4c2.43,0,4.56-.83,6.43-2.25.13-.1.24-.2.37-.31.56-.45,1.2-1.13,1.64-1.7.48-.61.96-1.34,1.31-2.04.59-1.18,1.15-2.82,1.15-4.22,0-1.27-.13-2.11-.87-3.11-.27-.36-.69-.77-1.05-1.02-.28-.19-.54-.36-.84-.51-.96-.46-2.26-.78-3.32-.78-1.71,0-2.53.1-4.13.68-.33.12-1.06.46-1.38.65-2.2,1.31-3.7,3-4.81,5.48-.22.5-.36.96-.53,1.5-.17.52-.26,1.15-.33,1.73l-.04.96c.11.96.17,1.5.75,2.37.83,1.26,2.37,2.06,3.82,2.35.56.11,1.2.21,1.86.21h0Z"/>
      <path class="cls-1" d="m24.73,22.4c2.43,0,4.56-.83,6.43-2.25.7-.54,1.47-1.31,2.01-2.01.91-1.17,1.66-2.5,2.07-3.95.52-1.82.7-3.83-.48-5.42-.47-.63-1.19-1.19-1.89-1.53-.16-.08-.31-.14-.47-.2l-.5-.18c-1.54-.5-3.28-.51-4.88-.19-.93.19-1.81.5-2.63.94l-.66.36c-.11.07-.2.14-.32.21-.22.15-.4.27-.61.44-1.56,1.21-2.72,2.74-3.57,4.66-.22.5-.36.96-.53,1.5-.17.52-.26,1.15-.33,1.73l-.04.96c.11.96.17,1.5.75,2.37.43.66.93,1.07,1.57,1.47,1.11.7,2.76,1.08,4.1,1.08h0Z"/>
      <path class="cls-1" d="m11.5,6.77h-1.92l-.44,2.3c-.04.18-.11.67-.16.78h1.88l-.83,4.1c-.06.35-.14.68-.21,1.03-.07.37-.12.69-.2,1.04l-.41,2.07c-.24,1.2-.63,2.94-.83,4.1l-.83,4.13h5.49c0-.26.13-.76.18-1.02l3.09-15.48h3.98l.46-2.28c.05-.23.14-.52.14-.8h-4.02c.02-.19.08-.46.11-.64.11-.67.25-1.18.57-1.76.33-.62,1.07-1.09,2.03-1.09,1.04,0,1.94.04,2.91.36.21.07.51.22.7.24l.64-3.19c-.19-.09-.54-.18-.77-.24-.3-.08-.54-.14-.86-.19-.62-.11-1.27-.18-1.93-.2h-.68c-1.08.03-2.14.22-3.08.64-.75.33-1.7.84-2.28,1.44-.56.57-.8.74-1.28,1.47-.65.97-1.15,2.01-1.44,3.22h0Z"/>
      <path class="cls-1" d="m41.53,29.09c-.1.15-.43.42-.59.57l-.31.25c-.76.6-1.21.91-2.07,1.43l-1.14.63c-.3.12-.49.24-.8.37-1.98.82-3.25,1.27-5.48,1.58l-2.16.17-1.14-.07c-1.53-.2-2.23-.27-3.8-.9-1.49-.6-3.15-1.63-4.28-2.75-.2-.2-.38-.38-.58-.58-.87-.87-1.62-2.02-2.18-3.12-.22-.43-.03-.36-.54-.36,0,.19.08.47.13.66.33,1.43.9,2.89,1.64,4.11.21.34.4.66.63.99l.71.94c.31.4,1.23,1.39,1.61,1.7.94.79,1.27,1.07,2.34,1.71,2,1.19,4.53,1.94,7.12,1.94,2.97,0,4.21-.14,6.98-.91.27-.08.56-.18.85-.28.75-.25,1.69-.66,2.35-.99.13-.06.22-.12.34-.19.66-.38,1.04-.56,1.75-1.03l.98-.71c.27-.18.74-.63.95-.74l.79,2.26c.15.37.26.75.4,1.14.07.2.13.37.2.56.06.18.18.4.19.6h.08c0-.24,1.84-9.37,2.17-11.02.03-.17.11-.63.16-.74-.17,0-.26-.04-.49-.04h-8.23c-.24,0-2.14-.03-2.14-.03-.13.03-.06.05,0,.1l2.95,2.25c.12.09.2.16.32.25.11.08.24.16.31.26h0Z"/>
      <path class="cls-1" d="m0,22.03h5.45l.37-1.88c.13-.64.25-1.29.38-1.92l1.51-7.62c.06-.31.13-.63.18-.94l.56-2.89H3.04l-.57,2.82C2.1,11.45,0,21.76,0,22.03h0Z"/>
      <path class="cls-1" d="m3.53,4.44h5.3c.17,0,.25-.75.31-1.04l.67-3.39h-5.34c-.17.04-.09.04-.17.47l-.68,3.38c-.04.2-.09.4-.09.59h0Z"/>
    </g>
  </g>
</svg>