<svg xmlns="http://www.w3.org/2000/svg" id="Camada_2" data-name="Camada 2" viewBox="0 0 96.67 31.7">
  <defs>
    <style>
      .cls-1 {
        fill: #a3a3a3;
        stroke-width: 0px;
      }
    </style>
  </defs>
  <g id="Camada_3" data-name="Camada 3">
    <g id="layer1">
      <path id="path2998" class="cls-1" d="m23.77,11.19h-11.28v3.35h8c-.4,4.69-4.3,6.7-7.99,6.7-4.72,0-8.83-3.71-8.83-8.91S7.59,3.36,12.51,3.36c3.79,0,6.03,2.42,6.03,2.42l2.34-2.43S17.88,0,12.39,0C5.4,0,0,5.9,0,12.26s5.08,12.33,12.57,12.33c6.58,0,11.4-4.51,11.4-11.18,0-1.41-.2-2.22-.2-2.22h0Z"/>
      <path id="path3000" class="cls-1" d="m33.01,8.77c-4.63,0-7.95,3.62-7.95,7.84s3.22,7.97,8,7.97c4.33,0,7.88-3.31,7.88-7.88,0-5.23-4.13-7.93-7.93-7.93h0Zm.05,3.1c2.28,0,4.43,1.84,4.43,4.81s-2.15,4.79-4.44,4.79c-2.52,0-4.51-2.02-4.51-4.82s1.97-4.78,4.52-4.78h0Z"/>
      <path id="path3005" class="cls-1" d="m50.29,8.77c-4.63,0-7.95,3.62-7.95,7.84s3.22,7.97,8,7.97c4.33,0,7.88-3.31,7.88-7.88,0-5.23-4.13-7.93-7.93-7.93h0Zm.05,3.1c2.28,0,4.43,1.84,4.43,4.81s-2.15,4.79-4.44,4.79c-2.52,0-4.51-2.02-4.51-4.82s1.97-4.78,4.52-4.78h0Z"/>
      <path id="path3007" class="cls-1" d="m67.23,8.78c-4.25,0-7.59,3.72-7.59,7.9,0,4.76,3.87,7.91,7.51,7.91,2.25,0,3.45-.89,4.33-1.92v1.56c0,2.73-1.66,4.36-4.15,4.36s-3.63-1.8-4.05-2.81l-3.04,1.27c1.08,2.28,3.25,4.65,7.11,4.65,4.22,0,7.44-2.66,7.44-8.24v-14.2h-3.31v1.34c-1.02-1.1-2.41-1.81-4.26-1.81Zm.31,3.1c2.08,0,4.22,1.78,4.22,4.82s-2.13,4.79-4.27,4.79c-2.26,0-4.37-1.84-4.37-4.76s2.19-4.84,4.42-4.84h0Z"/>
      <path id="path3011" class="cls-1" d="m89.54,8.76c-4.01,0-7.37,3.19-7.37,7.89,0,4.98,3.75,7.93,7.76,7.93,3.34,0,5.4-1.83,6.62-3.47l-2.73-1.82c-.71,1.1-1.89,2.18-3.87,2.18-2.22,0-3.24-1.22-3.88-2.4l10.6-4.4-.55-1.29c-1.02-2.52-3.41-4.63-6.57-4.63h0Zm.14,3.04c1.44,0,2.48.77,2.92,1.69l-7.08,2.96c-.31-2.29,1.86-4.65,4.15-4.65Z"/>
      <path id="path3015" class="cls-1" d="m77.12,24.11h3.48V.82h-3.48v23.3Z"/>
    </g>
  </g>
</svg>